HIERARCHY
ROOT Hips
{
  OFFSET 5.84602e-005 68.8428 3.50346
  CHANNELS 6 Xposition Yposition Zposition Zrotation Xrotation Yrotation
  JOINT Spine
  {
    OFFSET 0 8.597 -4.6522
    CHANNELS 3 Zrotation Xrotation Yrotation
    JOINT Spine1
    {
      OFFSET 0 7.8454 0.4098
      CHANNELS 3 Zrotation Xrotation Yrotation
      JOINT Spine2
      {
        OFFSET 0 9.7078 -2.1609
        CHANNELS 3 Zrotation Xrotation Yrotation
        JOINT Neck
        {
          OFFSET 0 21.8761 -0.4549
          CHANNELS 3 Zrotation Xrotation Yrotation
          JOINT Head
          {
            OFFSET 0 12.3537 3.3602
            CHANNELS 3 Zrotation Xrotation Yrotation
            End Site
            {
              OFFSET 0.0001 18.9506 0.5657
            }
          }
        }
        JOINT LeftShoulder
        {
          OFFSET 2.2086 21.1115 7.2329
          CHANNELS 3 Zrotation Xrotation Yrotation
          JOINT LeftArm
          {
            OFFSET 13.1193 3.0282 -4.8998
            CHANNELS 3 Zrotation Xrotation Yrotation
            JOINT LeftForeArm
            {
              OFFSET 27.4081 -0.0973053 -0.2375
              CHANNELS 3 Zrotation Xrotation Yrotation
              JOINT LeftHand
              {
                OFFSET 22.8641 0.0662994 -0.1369
                CHANNELS 3 Zrotation Xrotation Yrotation
                JOINT LeftHandIndex1
                {
                  OFFSET 8.8614 0.775009 2.4612
                  CHANNELS 3 Zrotation Xrotation Yrotation
                  JOINT LeftHandIndex2
                  {
                    OFFSET 3.3146 -0.808304 0.5841
                    CHANNELS 3 Zrotation Xrotation Yrotation
                    JOINT LeftHandIndex3
                    {
                      OFFSET 2.2628 -0.552002 0.3989
                      CHANNELS 3 Zrotation Xrotation Yrotation
                      End Site
                      {
                        OFFSET 1.6102 -0.4807 0.2612
                      }
                    }
                  }
                }
                JOINT LeftHandMiddle1
                {
                  OFFSET 8.9937 0.895004 0.2143
                  CHANNELS 3 Zrotation Xrotation Yrotation
                  JOINT LeftHandMiddle2
                  {
                    OFFSET 4.0984 0.0113983 -0.0242
                    CHANNELS 3 Zrotation Xrotation Yrotation
                    JOINT LeftHandMiddle3
                    {
                      OFFSET 2.2716 0.00689697 -0.0138001
                      CHANNELS 3 Zrotation Xrotation Yrotation
                      End Site
                      {
                        OFFSET 2.0404 -0.1441 0.0027
                      }
                    }
                  }
                }
                JOINT LeftHandRing1
                {
                  OFFSET 8.5234 0.597198 -2.0164
                  CHANNELS 3 Zrotation Xrotation Yrotation
                  JOINT LeftHandRing2
                  {
                    OFFSET 3.7188 -0.188293 -0.2328
                    CHANNELS 3 Zrotation Xrotation Yrotation
                    JOINT LeftHandRing3
                    {
                      OFFSET 2.1191 -0.106598 -0.1332
                      CHANNELS 3 Zrotation Xrotation Yrotation
                      End Site
                      {
                        OFFSET 1.8737 -0.2304 -0.0886
                      }
                    }
                  }
                }
                JOINT LeftHandPinky1
                {
                  OFFSET 7.9094 -0.601089 -3.4825
                  CHANNELS 3 Zrotation Xrotation Yrotation
                  JOINT LeftHandPinky2
                  {
                    OFFSET 2.2874 -0.477005 -0.6314
                    CHANNELS 3 Zrotation Xrotation Yrotation
                    JOINT LeftHandPinky3
                    {
                      OFFSET 1.6774 -0.349396 -0.4633
                      CHANNELS 3 Zrotation Xrotation Yrotation
                      End Site
                      {
                        OFFSET 1.4888 -0.4091 -0.3416
                      }
                    }
                  }
                }
                JOINT LeftHandThumb1
                {
                  OFFSET 1.833 -1.3875 1.3896
                  CHANNELS 3 Zrotation Xrotation Yrotation
                  JOINT LeftHandThumb2
                  {
                    OFFSET 3.4129 -1.121 2.5732
                    CHANNELS 3 Zrotation Xrotation Yrotation
                    JOINT LeftHandThumb3
                    {
                      OFFSET 2.2474 -0.804199 1.6192
                      CHANNELS 3 Zrotation Xrotation Yrotation
                      End Site
                      {
                        OFFSET 1.6527 -0.5689 1.1317
                      }
                    }
                  }
                }
              }
            }
          }
        }
        JOINT RightShoulder
        {
          OFFSET -2.2086 21.1115 7.2329
          CHANNELS 3 Zrotation Xrotation Yrotation
          JOINT RightArm
          {
            OFFSET -13.1216 3.0287 -4.9007
            CHANNELS 3 Zrotation Xrotation Yrotation
            JOINT RightForeArm
            {
              OFFSET -27.4081 -0.0973053 -0.2375
              CHANNELS 3 Zrotation Xrotation Yrotation
              JOINT RightHand
              {
                OFFSET -22.8641 0.0664063 -0.1369
                CHANNELS 3 Zrotation Xrotation Yrotation
                JOINT RightHandIndex1
                {
                  OFFSET -8.8614 0.774994 2.4612
                  CHANNELS 3 Zrotation Xrotation Yrotation
                  JOINT RightHandIndex2
                  {
                    OFFSET -3.3146 -0.808304 0.5841
                    CHANNELS 3 Zrotation Xrotation Yrotation
                    JOINT RightHandIndex3
                    {
                      OFFSET -2.2628 -0.552002 0.3989
                      CHANNELS 3 Zrotation Xrotation Yrotation
                      End Site
                      {
                        OFFSET -1.6102 -0.4807 0.2612
                      }
                    }
                  }
                }
                JOINT RightHandMiddle1
                {
                  OFFSET -8.9937 0.894989 0.2143
                  CHANNELS 3 Zrotation Xrotation Yrotation
                  JOINT RightHandMiddle2
                  {
                    OFFSET -4.0984 0.0113983 -0.0242
                    CHANNELS 3 Zrotation Xrotation Yrotation
                    JOINT RightHandMiddle3
                    {
                      OFFSET -2.2716 0.00691223 -0.0138001
                      CHANNELS 3 Zrotation Xrotation Yrotation
                      End Site
                      {
                        OFFSET -2.0404 -0.1441 0.0027
                      }
                    }
                  }
                }
                JOINT RightHandRing1
                {
                  OFFSET -8.5234 0.597198 -2.0164
                  CHANNELS 3 Zrotation Xrotation Yrotation
                  JOINT RightHandRing2
                  {
                    OFFSET -3.7188 -0.188309 -0.2328
                    CHANNELS 3 Zrotation Xrotation Yrotation
                    JOINT RightHandRing3
                    {
                      OFFSET -2.1191 -0.106598 -0.1332
                      CHANNELS 3 Zrotation Xrotation Yrotation
                      End Site
                      {
                        OFFSET -1.8737 -0.2304 -0.0886
                      }
                    }
                  }
                }
                JOINT RightHandPinky1
                {
                  OFFSET -7.9094 -0.601105 -3.4825
                  CHANNELS 3 Zrotation Xrotation Yrotation
                  JOINT RightHandPinky2
                  {
                    OFFSET -2.2874 -0.477005 -0.6314
                    CHANNELS 3 Zrotation Xrotation Yrotation
                    JOINT RightHandPinky3
                    {
                      OFFSET -1.6774 -0.349396 -0.4633
                      CHANNELS 3 Zrotation Xrotation Yrotation
                      End Site
                      {
                        OFFSET -1.4888 -0.4091 -0.3416
                      }
                    }
                  }
                }
                JOINT RightHandThumb1
                {
                  OFFSET -1.833 -1.38751 1.3896
                  CHANNELS 3 Zrotation Xrotation Yrotation
                  JOINT RightHandThumb2
                  {
                    OFFSET -3.41299 -1.12099 2.5732
                    CHANNELS 3 Zrotation Xrotation Yrotation
                    JOINT RightHandThumb3
                    {
                      OFFSET -2.24741 -0.804108 1.6192
                      CHANNELS 3 Zrotation Xrotation Yrotation
                      End Site
                      {
                        OFFSET -1.6527 -0.5689 1.1317
                      }
                    }
                  }
                }
              }
            }
          }
        }
      }
    }
  }
  JOINT RightUpLeg
  {
    OFFSET -9.1966 3.8861 -0.7581
    CHANNELS 3 Zrotation Xrotation Yrotation
    JOINT RightLeg
    {
      OFFSET -0.7359 -41.0265 0
      CHANNELS 3 Zrotation Xrotation Yrotation
      JOINT RightFoot
      {
        OFFSET 0 -40.2855 0
        CHANNELS 3 Zrotation Xrotation Yrotation
        JOINT RightToeBase
        {
          OFFSET 0 -5.6122 11.7359
          CHANNELS 3 Zrotation Xrotation Yrotation
          End Site
          {
            OFFSET 0 0 7.8731
          }
        }
      }
    }
  }
  JOINT LeftUpLeg
  {
    OFFSET 9.1965 3.8864 -0.7581
    CHANNELS 3 Zrotation Xrotation Yrotation
    JOINT LeftLeg
    {
      OFFSET 0.7359 -41.0268 0
      CHANNELS 3 Zrotation Xrotation Yrotation
      JOINT LeftFoot
      {
        OFFSET 0 -40.2855 0
        CHANNELS 3 Zrotation Xrotation Yrotation
        JOINT LeftToeBase
        {
          OFFSET 0 -5.6122 11.7359
          CHANNELS 3 Zrotation Xrotation Yrotation
          End Site
          {
            OFFSET 0 0 7.8731
          }
        }
      }
    }
  }
}
MOTION
Frames:	5
Frame Time:	0.0333333
-0.621896 67.5697 10.4581 -0 -31.623 -0 -0.135736 10.3595 -0.0753529 -0.264005 20.7195 -0.128506 -0.264006 20.7195 -0.128506 -2.00984e-007 -35.5257 -8.11313e-008 2.63872e-008 -26.6398 -9.03478e-008 -8.00266 -0.194471 -2.33344e-007 -57.7731 -0.450871 -4.00186 -7.96643e-006 1.30856e-006 -26.0015 -7.00034 -8.3263e-007 -8.62051e-007 4.16397e-006 3.76571e-007 1.13384e-007 1.23859e-006 2.20524e-007 -2.50037e-007 4.57205e-015 -1.59028e-015 3.18055e-015 4.16397e-006 3.76571e-007 1.13384e-007 -0.0145275 -8.76694e-005 -1.85567e-006 3.97569e-016 1.59028e-015 3.18055e-015 4.16397e-006 3.76571e-007 1.13384e-007 -0.0187595 -0.00117591 5.8853e-005 2.92785e-006 1.56141e-007 3.63409e-007 4.16397e-006 3.76571e-007 1.13384e-007 -0.0121819 -0.0032246 0.000671938 -9.93923e-016 1.59028e-015 -1.59028e-015 4.16397e-006 3.76571e-007 1.13384e-007 1.23859e-006 2.20524e-007 -2.50037e-007 4.57205e-015 -1.59028e-015 3.18055e-015 7.99916 -0.194715 6.27558e-007 57.7691 -0.452686 3.99878 -2.09155e-005 -2.84787e-006 25.9979 6.99683 5.1493e-007 1.88721e-006 7.28918e-008 -4.49155e-008 -1.02793e-006 3.586e-008 1.31696e-006 1.13079e-006 -9.51415e-006 1.32472e-007 -1.41502e-006 7.28918e-008 -4.49155e-008 -1.02793e-006 0.0149867 -8.86743e-005 2.59525e-006 -9.51432e-006 1.32288e-007 -1.41503e-006 7.28918e-008 -4.49155e-008 -1.02793e-006 0.018969 -0.00118886 -5.91634e-005 -9.51437e-006 1.32246e-007 -1.41494e-006 7.28918e-008 -4.49155e-008 -1.02793e-006 0.0122904 -0.00325308 -0.000676828 -9.51433e-006 1.32299e-007 -1.41476e-006 7.28918e-008 -4.49155e-008 -1.02793e-006 3.586e-008 1.31696e-006 1.13079e-006 -9.51415e-006 1.32472e-007 -1.41502e-006 -6.86386 16.5509 -11.5182 -0.344279 36.0295 0.573946 11.6131 -21.9233 -2.19819 8.78622e-008 -1.71159e-007 -7.52247e-007 7.8411 16.6523 11.2253 0.320371 35.7077 -0.574283 -12.4498 -21.5132 1.81737 -2.18663e-015 7.95139e-016 -0 
-0.621909 67.5021 10.3849 -0 -31.0437 -0 -0.137843 10.2463 -0.0769024 -0.268048 20.4928 -0.131514 -0.268048 20.4928 -0.131515 6.66311e-006 -34.9283 2.15387e-006 -2.2175e-009 -26.189 -6.22008e-008 -8.00266 -0.194472 -6.04291e-007 -57.7731 -0.450869 -4.00186 1.02546e-006 -8.49478e-007 -26.0015 -7.00034 -8.68077e-007 8.84444e-007 -3.97637e-008 2.51357e-007 1.94259e-007 -7.22401e-008 1.02074e-006 -2.81767e-007 4.37326e-015 -3.18055e-015 -1.59028e-015 -3.97637e-008 2.51357e-007 1.94259e-007 -0.0146126 -8.82829e-005 -1.70436e-006 1.21552e-006 -2.13316e-007 4.85796e-007 -3.97637e-008 2.51357e-007 1.94259e-007 -0.01881 -0.00117793 5.75806e-005 -7.95139e-016 0 4.77083e-015 -3.97637e-008 2.51357e-007 1.94259e-007 -0.0122754 -0.00324627 0.000676836 1.21573e-006 -2.13581e-007 4.85824e-007 -3.97637e-008 2.51357e-007 1.94259e-007 -7.22401e-008 1.02074e-006 -2.81767e-007 4.37326e-015 -3.18055e-015 -1.59028e-015 7.99916 -0.194718 8.38346e-007 57.7691 -0.45269 3.99878 -3.99414e-006 1.72709e-006 25.9979 6.99681 2.00118e-006 -7.77179e-007 -6.25779e-009 -4.23188e-008 3.18948e-008 -5.41156e-008 1.71767e-007 9.32259e-007 8.46214e-009 5.94954e-007 6.13311e-007 -6.25779e-009 -4.23188e-008 3.18948e-008 0.0150457 -9.14846e-005 -1.04495e-006 8.44943e-009 5.95035e-007 6.13233e-007 -6.25779e-009 -4.23188e-008 3.18948e-008 0.0189895 -0.00118943 -5.98877e-005 -1.32237e-006 3.65334e-007 5.95212e-008 -6.25779e-009 -4.23188e-008 3.18948e-008 0.0122907 -0.00325307 -0.00067688 8.46524e-009 5.95023e-007 6.13247e-007 -6.25779e-009 -4.23188e-008 3.18948e-008 -5.41156e-008 1.71767e-007 9.32259e-007 8.46214e-009 5.94954e-007 6.13311e-007 -6.84604 15.8627 -11.5661 -0.377736 36.1806 0.588199 11.6145 -21.9242 -2.19779 2.0449e-007 -4.69927e-007 9.55174e-007 7.82246 15.9648 11.2805 0.349452 35.8599 -0.586602 -12.4511 -21.514 1.81703 -1.24886e-007 1.77686e-008 -3.36562e-006 
-0.621918 67.4464 10.3239 -0 -30.5637 -0 -0.139622 10.1528 -0.078093 -0.271486 20.3058 -0.133814 -0.271486 20.3057 -0.133814 8.29684e-007 -34.39 7.19007e-007 2.04429e-007 -25.7828 3.44253e-008 -8.00266 -0.194468 -6.12911e-009 -57.7731 -0.450864 -4.00186 -2.97587e-005 2.99769e-006 -26.0015 -7.00032 3.62674e-006 -2.27011e-006 1.25533e-006 -4.64303e-007 2.92312e-007 5.30036e-008 -3.35116e-007 -2.59049e-007 5.30036e-008 -3.35116e-007 -2.59049e-007 1.25533e-006 -4.64303e-007 2.92312e-007 -0.0146318 -8.86863e-005 -1.99525e-006 5.30029e-008 -3.35083e-007 -2.59092e-007 1.25533e-006 -4.64303e-007 2.92312e-007 -0.0188112 -0.00117859 5.75493e-005 5.30001e-008 -3.35074e-007 -2.59105e-007 1.25533e-006 -4.64303e-007 2.92312e-007 -0.012197 -0.00322992 0.000671214 5.29939e-008 -3.35089e-007 -2.59086e-007 1.25533e-006 -4.64303e-007 2.92312e-007 5.30036e-008 -3.35116e-007 -2.59049e-007 5.30036e-008 -3.35116e-007 -2.59049e-007 7.99916 -0.194715 3.71032e-007 57.7691 -0.452685 3.99878 3.84505e-006 1.22353e-006 25.9979 6.99681 -8.52718e-007 -2.8193e-006 -2.84066e-006 1.14407e-007 8.78278e-007 1.22917e-007 2.93852e-007 -1.28309e-006 2.66772e-006 -7.46835e-007 6.59945e-007 -2.84066e-006 1.14407e-007 8.78278e-007 0.014989 -9.17478e-005 6.6632e-007 -8.12844e-008 -5.50131e-007 4.14662e-007 -2.84066e-006 1.14407e-007 8.78278e-007 0.0189335 -0.00118644 -6.13598e-005 -8.128e-008 -5.50117e-007 4.14682e-007 -2.84066e-006 1.14407e-007 8.78278e-007 0.0122465 -0.00324149 -0.000675099 -8.12699e-008 -5.50142e-007 4.14651e-007 -2.84066e-006 1.14407e-007 8.78278e-007 1.22917e-007 2.93852e-007 -1.28309e-006 2.66772e-006 -7.46835e-007 6.59945e-007 -6.83178 15.2916 -11.6056 -0.405527 36.3061 0.600081 11.6157 -21.9253 -2.19745 4.17796e-008 1.14871e-007 1.67588e-006 7.80761 15.3951 11.326 0.373454 35.9853 -0.59685 -12.4522 -21.5147 1.81675 7.99831e-007 -3.61728e-007 -3.56202e-008 
-0.621928 67.391 10.2623 -0 -30.0833 -0 -0.141346 10.0592 -0.0793683 -0.274799 20.1186 -0.136302 -0.274799 20.1186 -0.136302 -2.14729e-006 -33.8507 1.1075e-008 9.45319e-008 -25.3764 5.75022e-008 -8.00265 -0.194463 9.89569e-007 -57.7731 -0.45087 -4.00186 -4.1652e-006 4.3479e-006 -26.0015 -7.00034 -1.14944e-007 -2.67601e-006 3.97417e-008 -2.51317e-007 -1.94314e-007 3.97418e-008 -2.51317e-007 -1.94314e-007 -6.55989e-015 4.77083e-015 1.59028e-015 3.97417e-008 -2.51317e-007 -1.94314e-007 -0.0146348 -8.93368e-005 -5.9958e-008 -1.19271e-015 1.59028e-015 1.59028e-015 3.97417e-008 -2.51317e-007 -1.94314e-007 -0.01878 -0.00117795 5.91334e-005 -1.98785e-016 -3.18055e-015 1.59028e-015 3.97417e-008 -2.51317e-007 -1.94314e-007 -0.0123123 -0.00325865 0.000678462 -1.19271e-015 1.59028e-015 3.18055e-015 3.97417e-008 -2.51317e-007 -1.94314e-007 3.97418e-008 -2.51317e-007 -1.94314e-007 -6.55989e-015 4.77083e-015 1.59028e-015 7.99916 -0.194703 -1.43847e-006 57.7691 -0.452695 3.99878 1.36532e-005 7.5662e-006 25.9979 6.99683 -1.49018e-007 2.26057e-006 3.74847e-008 2.5395e-007 -1.9133e-007 -8.9533e-008 -1.14509e-006 -1.98875e-007 8.32856e-008 1.10277e-006 2.30764e-007 3.74847e-008 2.5395e-007 -1.9133e-007 0.0150106 -9.34331e-005 1.20451e-006 8.32722e-008 1.1028e-006 2.30619e-007 3.74847e-008 2.5395e-007 -1.9133e-007 0.0189838 -0.00119136 -6.1531e-005 8.32702e-008 1.1028e-006 2.3058e-007 3.74847e-008 2.5395e-007 -1.9133e-007 0.0122183 -0.0032359 -0.000673704 8.32745e-008 1.10279e-006 2.30644e-007 3.74847e-008 2.5395e-007 -1.9133e-007 -8.9533e-008 -1.14509e-006 -1.98875e-007 8.32856e-008 1.10277e-006 2.30764e-007 -6.81792 14.7204 -11.6448 -0.433226 36.4306 0.612055 11.6169 -21.9261 -2.19713 2.5842e-015 0 -6.36111e-015 7.79318 14.8246 11.3713 0.397524 36.1106 -0.607188 -12.4533 -21.5153 1.81648 -1.98785e-016 7.95139e-016 -9.54166e-015 
-0.621936 67.3358 10.2002 -0 -29.6023 -0 -0.143065 9.96554 -0.0806445 -0.278104 19.9315 -0.138797 -0.278105 19.9314 -0.138797 2.86881e-006 -33.3107 1.02086e-006 -1.42808e-007 -24.9696 -1.43012e-007 -8.00266 -0.19446 1.22107e-006 -57.7731 -0.450871 -4.00186 1.12023e-005 -1.20471e-006 -26.0015 -7.00033 -1.52545e-007 -3.45291e-007 -5.29734e-008 3.35064e-007 2.59122e-007 4.14025e-006 5.41681e-007 2.42228e-007 -1.32434e-008 8.3766e-008 6.47805e-008 -5.29734e-008 3.35064e-007 2.59122e-007 -0.0146164 -8.88335e-005 -3.49876e-006 -1.32432e-008 8.37577e-008 6.47912e-008 -5.29734e-008 3.35064e-007 2.59122e-007 -0.0188102 -0.00117907 5.98614e-005 -1.32425e-008 8.37553e-008 6.47944e-008 -5.29734e-008 3.35064e-007 2.59122e-007 -0.0122991 -0.00325323 0.000676809 -1.32409e-008 8.37591e-008 6.47898e-008 -5.29734e-008 3.35064e-007 2.59122e-007 4.14025e-006 5.41681e-007 2.42228e-007 -1.32434e-008 8.3766e-008 6.47805e-008 7.99916 -0.194704 -7.37787e-007 57.7691 -0.452689 3.99878 -1.00302e-005 -1.35881e-006 25.9979 6.99684 -4.52843e-007 2.23755e-006 -1.87264e-008 -1.26985e-007 9.56557e-008 6.24215e-009 4.23282e-008 -3.18852e-008 -3.74528e-008 -2.53969e-007 1.91311e-007 -1.87264e-008 -1.26985e-007 9.56557e-008 0.0149761 -9.20804e-005 2.6472e-006 -3.74525e-008 -2.53944e-007 1.91345e-007 -1.87264e-008 -1.26985e-007 9.56557e-008 0.0190288 -0.00119363 -5.98648e-005 -3.74504e-008 -2.53937e-007 1.91354e-007 -1.87264e-008 -1.26985e-007 9.56557e-008 0.0122252 -0.00323671 -0.000672877 -1.37712e-006 -5.26324e-007 -3.34342e-007 -1.87264e-008 -1.26985e-007 9.56557e-008 6.24215e-009 4.23282e-008 -3.18852e-008 -3.74528e-008 -2.53969e-007 1.91311e-007 -6.8044 14.1478 -11.6839 -0.461135 36.5558 0.624109 11.6181 -21.927 -2.19679 -1.98785e-016 1.59028e-015 6.36111e-015 7.7792 14.2527 11.4163 0.42175 36.2366 -0.617607 -12.4543 -21.5161 1.81617 -3.7981e-008 -2.09493e-007 -1.41673e-008 
